<?xml version="1.0" encoding="UTF-8" standalone="no"?>
<!-- Created with Inkscape (http://www.inkscape.org/) -->

<svg
   width="210mm"
   height="297mm"
   viewBox="0 0 210 297"
   version="1.1"
   id="svg5"
   xml:space="preserve"
   inkscape:version="1.2.2 (b0a8486541, 2022-12-01)"
   sodipodi:docname="Stethoscope (Fixed).svg"
   xmlns:inkscape="http://www.inkscape.org/namespaces/inkscape"
   xmlns:sodipodi="http://sodipodi.sourceforge.net/DTD/sodipodi-0.dtd"
   xmlns="http://www.w3.org/2000/svg"
   xmlns:svg="http://www.w3.org/2000/svg"><sodipodi:namedview
     id="namedview7"
     pagecolor="#ffffff"
     bordercolor="#000000"
     borderopacity="0.25"
     inkscape:showpageshadow="2"
     inkscape:pageopacity="0.0"
     inkscape:pagecheckerboard="0"
     inkscape:deskcolor="#d1d1d1"
     inkscape:document-units="mm"
     showgrid="false"
     showguides="true"
     inkscape:zoom="2"
     inkscape:cx="206.5"
     inkscape:cy="489.25"
     inkscape:window-width="2494"
     inkscape:window-height="1531"
     inkscape:window-x="0"
     inkscape:window-y="0"
     inkscape:window-maximized="1"
     inkscape:current-layer="layer1"><sodipodi:guide
       position="67.911572,158.02273"
       orientation="1,0"
       id="guide2077"
       inkscape:locked="false" /><sodipodi:guide
       position="67.047899,139.18854"
       orientation="0,-1"
       id="guide2806"
       inkscape:locked="false" /><sodipodi:guide
       position="64.91157,137.55535"
       orientation="-1,0"
       id="guide2808"
       inkscape:locked="false"
       inkscape:label=""
       inkscape:color="rgb(0,134,229)" /><sodipodi:guide
       position="70.91157,141.1142"
       orientation="-1,0"
       id="guide2810"
       inkscape:locked="false"
       inkscape:label=""
       inkscape:color="rgb(0,134,229)" /><sodipodi:guide
       position="56.863955,135.61047"
       orientation="1,0"
       id="guide7425"
       inkscape:locked="false" /><sodipodi:guide
       position="81.86395,136.62806"
       orientation="-1,0"
       id="guide7427"
       inkscape:locked="false"
       inkscape:label=""
       inkscape:color="rgb(0,134,229)" /><sodipodi:guide
       position="45.381499,145.79961"
       orientation="0,-1"
       id="guide8188"
       inkscape:locked="false" /></sodipodi:namedview><defs
     id="defs2"><inkscape:path-effect
       effect="spiro"
       id="path-effect7431"
       is_visible="true"
       lpeversion="1" /><inkscape:path-effect
       effect="spiro"
       id="path-effect1855"
       is_visible="true"
       lpeversion="1" /><inkscape:path-effect
       effect="spiro"
       id="path-effect1851"
       is_visible="true"
       lpeversion="1" /><inkscape:path-effect
       effect="spiro"
       id="path-effect1847"
       is_visible="true"
       lpeversion="1" /><inkscape:path-effect
       effect="spiro"
       id="path-effect222"
       is_visible="true"
       lpeversion="1" /><inkscape:path-effect
       effect="spiro"
       id="path-effect1847-6"
       is_visible="true"
       lpeversion="1" /><inkscape:path-effect
       effect="spiro"
       id="path-effect1851-2"
       is_visible="true"
       lpeversion="1" /><inkscape:path-effect
       effect="spiro"
       id="path-effect1855-9"
       is_visible="true"
       lpeversion="1" /><inkscape:path-effect
       effect="spiro"
       id="path-effect1851-0"
       is_visible="true"
       lpeversion="1" /><inkscape:path-effect
       effect="spiro"
       id="path-effect1855-93"
       is_visible="true"
       lpeversion="1" /><inkscape:path-effect
       effect="spiro"
       id="path-effect1847-60"
       is_visible="true"
       lpeversion="1" /><inkscape:path-effect
       effect="spiro"
       id="path-effect1847-1"
       is_visible="true"
       lpeversion="1" /><inkscape:path-effect
       effect="spiro"
       id="path-effect1851-8"
       is_visible="true"
       lpeversion="1" /><inkscape:path-effect
       effect="spiro"
       id="path-effect1855-7"
       is_visible="true"
       lpeversion="1" /></defs><g
     inkscape:label="Layer 1"
     inkscape:groupmode="layer"
     id="layer1"><path
       style="fill:none;stroke:#000000;stroke-width:0.619279;stroke-opacity:1"
       d="m 80.916268,144.55445 c 3.455889,-1.15089 6.703518,-2.91977 9.554938,-5.18629 4.55586,-3.62134 8.073138,-8.5122 10.161564,-13.94437 0.97358,-2.53235 1.6411,-5.17023 2.28776,-7.80509 1.40602,-5.72888 2.72462,-11.47907 3.97624,-17.24365 0.91279,-4.204048 1.79132,-8.424193 2.25347,-12.701296 0.48867,-4.522499 0.46865,-9.284766 -1.50942,-13.380987 -0.73856,-1.529425 -1.74605,-2.93993 -3.02608,-4.056233 -1.80762,-1.576405 -4.14903,-2.529337 -6.543729,-2.663239 -0.636125,0.719276 -1.385746,1.33797 -2.212602,1.826152 -2.31323,1.36575 -5.193107,1.65096 -7.790571,0.965773 -0.91903,-0.242432 -1.812266,-0.60269 -2.607107,-1.123859 -0.794841,-0.521168 -1.489785,-1.2074 -1.964213,-2.030994 -0.838729,-1.45601 -0.934429,-3.250841 -0.57946,-4.893226 0.410556,-1.899574 1.451447,-3.720206 3.09047,-4.764496 0.86125,-0.548739 1.856357,-0.867148 2.867303,-1.011561 1.010945,-0.144414 2.039884,-0.119453 3.056098,-0.01858 1.623301,0.16114 3.265463,0.5313 4.63571,1.416452 0.856961,0.553579 1.588135,1.30066 2.123146,2.169335 3.927985,0.09788 7.808655,1.565687 10.818195,4.091824 3.24288,2.721999 5.41135,6.569307 6.63164,10.623495 1.37395,4.564704 1.61119,9.407461 1.30531,14.164633 -0.49707,7.730462 -2.39112,15.291334 -4.04039,22.860154 -0.90776,4.16589 -1.74558,8.35595 -3.02609,12.42276 -1.32942,4.22216 -3.13366,8.29538 -5.37845,12.11047 -3.19453,5.42918 -7.259513,10.3051 -11.653601,14.81876 -2.232131,2.29287 -4.553578,4.49879 -6.957308,6.61107 l -0.225088,45.54029 c -0.0044,0.88039 -0.01999,1.76985 -0.234029,2.62384 -0.214042,0.85399 -0.63219,1.66386 -1.251805,2.28932 -0.619615,0.62545 -1.426288,1.05113 -2.27961,1.26783 -0.853321,0.2167 -1.743363,0.22931 -2.62377,0.22931 h -20.82173 c -0.849651,0 -1.710462,-0.0168 -2.527764,-0.24897 -0.817302,-0.23221 -1.576981,-0.68161 -2.143353,-1.31495 -0.566371,-0.63335 -0.929147,-1.4326 -1.109734,-2.26284 -0.180586,-0.83024 -0.187191,-1.68712 -0.187355,-2.53677 l -0.0088,-45.48767 c -2.67017,-2.07305 -5.208505,-4.31589 -7.594583,-6.71046 -4.556875,-4.5731 -8.568527,-9.72052 -11.611853,-15.41408 -1.960699,-3.66813 -3.512261,-7.54704 -4.758738,-11.51515 -1.314567,-4.18486 -2.291175,-8.46746 -3.224523,-12.75349 -1.621994,-7.44835 -3.120406,-14.940724 -3.841957,-22.529417 -0.44983,-4.730948 -0.587458,-9.574635 0.643858,-14.164633 1.099547,-4.098801 3.337163,-7.948491 6.631632,-10.623495 3.056641,-2.481895 6.974416,-3.881759 10.911745,-3.898888 0.457104,-0.945133 1.164105,-1.768018 2.029602,-2.362271 1.34695,-0.924821 3.008511,-1.268788 4.635706,-1.416452 1.016434,-0.09224 2.044274,-0.115765 3.054832,0.02713 1.010558,0.142898 2.006318,0.456953 2.868567,1.003005 1.642432,1.040133 2.684002,2.86338 3.090473,4.764496 0.351143,1.64234 0.250418,3.433129 -0.57946,4.893226 -0.47048,0.827769 -1.159641,1.522391 -1.953919,2.047438 -0.794279,0.525048 -1.691869,0.883954 -2.617406,1.107415 -2.448042,0.591054 -5.099527,0.218217 -7.334533,-0.942387 -0.927875,-0.481831 -1.787639,-1.094592 -2.545864,-1.814459 -2.432556,0.09424 -4.824057,1.037051 -6.666497,2.62816 -1.286027,1.110597 -2.300626,2.519678 -3.026084,4.056233 -1.957667,4.146433 -1.76493,8.965566 -1.178689,13.513279 0.541567,4.201154 1.382833,8.357383 2.253469,12.502857 1.22241,5.82043 2.504752,11.63074 4.042383,17.37594 0.706376,2.6393 1.468298,5.26959 2.4862,7.80509 2.049769,5.10578 5.182402,9.83848 9.425936,13.34034 2.943589,2.42911 6.379485,4.23422 9.999273,5.44354 3.15944,1.05552 6.46771,1.66449 9.795919,1.80316 l 2.999998,0.0549 c 3.391352,0.0296 6.786957,-0.50583 10.004698,-1.57741 z"
       id="path1853-0"
       inkscape:path-effect="#path-effect1855-7"
       inkscape:original-d="m 80.916268,144.55445 c 4.07709,-2.62564 6.057317,1.03695 9.554938,-5.18629 3.49762,-6.22324 7.500946,-4.60921 10.161564,-13.94437 2.66062,-9.33517 -0.0724,1.37986 2.28776,-7.80509 2.36016,-9.18495 2.79792,-11.46381 3.97624,-17.24365 0.85894,-4.213209 2.11748,-8.403556 2.25347,-12.701296 0.14196,-4.486363 0.1415,-9.206997 -1.50942,-13.380987 -0.62044,-1.568636 -1.69291,-3.022679 -3.02608,-4.056233 -1.83318,-1.421203 -2.96232,-1.973886 -6.543729,-2.663239 -0.878467,0.578169 0.384858,1.50362 -2.212602,1.826152 -2.59748,0.322556 -6.186001,0.0418 -7.790571,0.965773 -19.60086,11.286911 -5.48041,-0.771645 -4.57132,-3.154853 0.58519,-1.534113 -1.609,-3.305701 -0.57946,-4.893226 1.02954,-1.58755 4.51436,-6.173786 3.09047,-4.764496 -26.19982,25.931367 -27.602854,11.235395 5.923401,-1.030138 26.936701,-9.854764 2.93715,2.770176 4.63571,1.416452 2.31649,-1.84623 -9.1778,3.33418 2.123146,2.169335 4.900325,1.787571 6.010175,2.504275 10.818195,4.091824 4.80802,1.587525 6.09968,6.80469 6.63164,10.623495 1.03344,7.418835 1.26176,9.701234 1.30531,14.164633 0.0435,4.463406 -2.5387,15.091644 -4.04039,22.860154 -1.5017,7.76848 -2.29701,8.17396 -3.02609,12.42276 -0.72908,4.24877 -2.07398,-0.85171 -5.37845,12.11047 -3.30446,12.9622 -11.228559,14.4602 -11.653601,14.81876 -0.772083,0.65132 -0.781435,-2.97577 -6.957308,6.61107 l -0.225088,45.54029 c 0,3.05982 -2.268045,6.4103 -6.389214,6.4103 h -20.82173 c -4.564552,0 -5.967219,-3.80864 -5.968206,-6.36353 l -0.0088,-45.48767 c -4.240011,-5.07787 -4.375963,1.61603 -7.594583,-6.71046 -3.218621,-8.32647 -8.307389,-2.45188 -11.611853,-15.41408 -3.304472,-12.96218 -4.02966,-7.26638 -4.758738,-11.51515 -0.729074,-4.2488 -1.722829,-4.98501 -3.224523,-12.75349 -1.50169,-7.7685 -3.885507,-18.066011 -3.841957,-22.529417 0.04356,-4.463399 -0.389585,-6.745798 0.643858,-14.164633 0.531959,-3.818805 1.823617,-9.03597 6.631632,-10.623495 4.808021,-1.587549 5.917872,-2.351025 10.911745,-3.898888 11.394483,1.404551 -0.286929,-4.208501 2.029602,-2.362271 1.698555,1.353724 -22.300992,-11.271216 4.635706,-1.416452 33.526249,12.265533 32.123222,26.961505 5.923399,1.030138 -1.423886,-1.40929 2.060931,3.176946 3.090473,4.764496 1.029539,1.587525 -1.164656,3.359113 -0.57946,4.893226 0.909085,2.383208 15.029541,14.441764 -4.571325,3.154853 -1.604565,-0.92397 -4.737057,-0.619854 -7.334533,-0.942387 -2.597469,-0.322532 -0.498019,-1.201211 -2.545864,-1.814459 -3.704177,0.654274 -4.83332,1.206957 -6.666497,2.62816 -1.333169,1.033554 -2.425558,2.479861 -3.026084,4.056233 -1.609651,4.22531 -1.385064,8.996462 -1.178689,13.513279 0.193287,4.230359 1.397839,8.355429 2.253469,12.502857 1.201513,5.82401 1.682229,8.19099 4.042383,17.37594 2.360156,9.18495 -0.174419,-1.53008 2.4862,7.80509 2.660618,9.33516 5.928311,7.1171 9.425936,13.34034 3.497619,6.22324 5.922187,2.8179 9.999273,5.44354 4.077082,2.62566 7.321542,1.24789 9.795919,1.80316 1.096884,0.006 1.82556,0.0301 2.999998,0.0549 2.552456,-0.52463 5.927618,1.04825 10.004698,-1.57741 z"
       sodipodi:nodetypes="ssssaaaacssssssscsssssssccccscssssssscssssssscaaaassssccs" /></g></svg>
