<?xml version="1.0" encoding="UTF-8" standalone="no"?>
<!-- Created with Inkscape (http://www.inkscape.org/) -->

<svg
   width="210mm"
   height="297mm"
   viewBox="0 0 210 297"
   version="1.1"
   id="svg5"
   xml:space="preserve"
   inkscape:version="1.2.2 (b0a8486541, 2022-12-01)"
   sodipodi:docname="Stethoscope.svg"
   xmlns:inkscape="http://www.inkscape.org/namespaces/inkscape"
   xmlns:sodipodi="http://sodipodi.sourceforge.net/DTD/sodipodi-0.dtd"
   xmlns="http://www.w3.org/2000/svg"
   xmlns:svg="http://www.w3.org/2000/svg"><sodipodi:namedview
     id="namedview7"
     pagecolor="#ffffff"
     bordercolor="#000000"
     borderopacity="0.25"
     inkscape:showpageshadow="2"
     inkscape:pageopacity="0.0"
     inkscape:pagecheckerboard="0"
     inkscape:deskcolor="#d1d1d1"
     inkscape:document-units="mm"
     showgrid="false"
     showguides="true"
     inkscape:zoom="1.2852433"
     inkscape:cx="394.86688"
     inkscape:cy="504.57373"
     inkscape:window-width="2494"
     inkscape:window-height="1531"
     inkscape:window-x="0"
     inkscape:window-y="0"
     inkscape:window-maximized="1"
     inkscape:current-layer="layer1"><sodipodi:guide
       position="67.911572,158.02273"
       orientation="1,0"
       id="guide2077"
       inkscape:locked="false" /><sodipodi:guide
       position="67.047899,139.18854"
       orientation="0,-1"
       id="guide2806"
       inkscape:locked="false" /><sodipodi:guide
       position="64.91157,137.55535"
       orientation="-1,0"
       id="guide2808"
       inkscape:locked="false"
       inkscape:label=""
       inkscape:color="rgb(0,134,229)" /><sodipodi:guide
       position="70.91157,141.1142"
       orientation="-1,0"
       id="guide2810"
       inkscape:locked="false"
       inkscape:label=""
       inkscape:color="rgb(0,134,229)" /><sodipodi:guide
       position="56.863955,135.61047"
       orientation="1,0"
       id="guide7425"
       inkscape:locked="false" /><sodipodi:guide
       position="81.86395,136.62806"
       orientation="-1,0"
       id="guide7427"
       inkscape:locked="false"
       inkscape:label=""
       inkscape:color="rgb(0,134,229)" /><sodipodi:guide
       position="45.381499,145.79961"
       orientation="0,-1"
       id="guide8188"
       inkscape:locked="false" /></sodipodi:namedview><defs
     id="defs2"><inkscape:path-effect
       effect="spiro"
       id="path-effect7431"
       is_visible="true"
       lpeversion="1" /><inkscape:path-effect
       effect="spiro"
       id="path-effect1855"
       is_visible="true"
       lpeversion="1" /><inkscape:path-effect
       effect="spiro"
       id="path-effect1851"
       is_visible="true"
       lpeversion="1" /><inkscape:path-effect
       effect="spiro"
       id="path-effect1847"
       is_visible="true"
       lpeversion="1" /><inkscape:path-effect
       effect="spiro"
       id="path-effect222"
       is_visible="true"
       lpeversion="1" /><inkscape:path-effect
       effect="spiro"
       id="path-effect1847-6"
       is_visible="true"
       lpeversion="1" /><inkscape:path-effect
       effect="spiro"
       id="path-effect1851-2"
       is_visible="true"
       lpeversion="1" /><inkscape:path-effect
       effect="spiro"
       id="path-effect1855-9"
       is_visible="true"
       lpeversion="1" /><inkscape:path-effect
       effect="spiro"
       id="path-effect1851-0"
       is_visible="true"
       lpeversion="1" /><inkscape:path-effect
       effect="spiro"
       id="path-effect1855-93"
       is_visible="true"
       lpeversion="1" /><inkscape:path-effect
       effect="spiro"
       id="path-effect1847-60"
       is_visible="true"
       lpeversion="1" /><inkscape:path-effect
       effect="spiro"
       id="path-effect1847-1"
       is_visible="true"
       lpeversion="1" /><inkscape:path-effect
       effect="spiro"
       id="path-effect1851-8"
       is_visible="true"
       lpeversion="1" /><inkscape:path-effect
       effect="spiro"
       id="path-effect1855-7"
       is_visible="true"
       lpeversion="1" /></defs><g
     inkscape:label="Layer 1"
     inkscape:groupmode="layer"
     id="layer1"><path
       style="fill:none;stroke:#000000;stroke-width:0.619279;stroke-opacity:1"
       d="m 39.944575,60.260311 c -3.879144,0.07343 -7.720488,1.48459 -10.724656,3.939814 -3.284461,2.684299 -5.510415,6.532527 -6.631632,10.623495 -1.25703,4.586507 -1.184116,9.439774 -0.643858,14.164633 0.878883,7.686332 2.958015,15.175537 4.635707,22.727857 0.933857,4.20386 1.746802,8.44312 3.026085,12.55505 1.246667,4.00709 2.930411,7.87092 4.89103,11.5813 2.939799,5.56344 6.522964,10.81214 10.884249,15.34793 2.330903,2.42418 4.878838,4.63959 7.603353,6.61107"
       id="path1845"
       inkscape:path-effect="#path-effect1847"
       inkscape:original-d="m 39.944575,60.260311 c -4.806784,1.588789 -5.916635,2.352265 -10.724656,3.939814 -4.808015,1.587525 -6.099673,6.80469 -6.631632,10.623495 -1.033443,7.418835 -0.6003,9.701234 -0.643858,14.164633 -0.04355,4.463406 3.134017,14.959357 4.635707,22.727857 1.501694,7.76848 2.297011,8.30625 3.026085,12.55505 0.729078,4.24877 1.586558,-1.38088 4.89103,11.5813 3.304464,12.9622 7.665628,7.02146 10.884249,15.34793 3.21862,8.32649 3.354572,1.63259 7.603353,6.61107"
       sodipodi:nodetypes="csssssssc" /><path
       style="opacity:1;fill:none;stroke:#000000;stroke-width:0.619279;stroke-opacity:1"
       d="m 39.944575,60.260311 c 0.54319,-0.933276 1.309448,-1.73571 2.216691,-2.321345 1.370516,-0.884682 3.012447,-1.255192 4.635706,-1.416452 1.016205,-0.100953 2.045149,-0.125876 3.056088,0.01857 1.010939,0.144451 2.00602,0.46289 2.867311,1.011563 1.639147,1.044196 2.680576,2.864724 3.090473,4.764496 0.354354,1.642344 0.257391,3.436332 -0.57946,4.893226 -0.473591,0.824487 -1.167264,1.512552 -1.961972,2.034574 -0.794707,0.522022 -1.68887,0.881996 -2.609353,1.120279 -2.596361,0.672113 -5.454317,0.35134 -7.790562,-0.965773 -0.855738,-0.482443 -1.639605,-1.092115 -2.317849,-1.802766"
       id="path1849"
       inkscape:path-effect="#path-effect1851"
       inkscape:original-d="m 39.944575,60.260311 c 11.207395,1.363626 -0.09984,-4.167575 2.216691,-2.321345 1.698555,1.353724 -22.300992,-11.271216 4.635706,-1.416452 33.526249,12.265533 32.123222,26.961505 5.923399,1.030138 -1.423886,-1.40929 2.060931,3.176946 3.090473,4.764496 1.029539,1.587525 -1.164656,3.359113 -0.57946,4.893226 0.909085,2.383208 15.029541,14.441764 -4.571325,3.154853 -1.604565,-0.92397 -5.193088,-0.643217 -7.790562,-0.965773 -2.597469,-0.322532 -1.544611,-1.201211 -2.317849,-1.802766"
       sodipodi:nodetypes="csssssssc" /><path
       style="opacity:1;fill:none;stroke:#000000;stroke-width:0.619279;stroke-opacity:1"
       d="m 40.551648,67.596688 c -2.35695,0.146037 -4.657419,1.089256 -6.438483,2.639853 -1.281034,1.115271 -2.288223,2.526384 -3.026084,4.056233 -1.975955,4.096863 -1.992511,8.858233 -1.509418,13.380987 0.456936,4.277863 1.322563,8.501023 2.253469,12.701299 1.276365,5.759 2.677718,11.48959 3.976237,17.24364 0.597973,2.64976 1.176505,5.31281 2.089325,7.87124 1.961902,5.49877 5.487669,10.43612 10.079369,14.04192 2.904835,2.28113 6.218779,4.0296 9.71864,5.20968 3.289532,1.10917 6.746779,1.71945 10.217253,1.80358"
       id="path1853"
       inkscape:path-effect="#path-effect1855"
       inkscape:original-d="m 40.551648,67.596688 c -3.476163,0.665967 -4.605306,1.21865 -6.438483,2.639853 -1.333169,1.033554 -2.405646,2.487597 -3.026084,4.056233 -1.650917,4.17399 -1.651379,8.894624 -1.509418,13.380987 0.135988,4.29774 1.394531,8.488087 2.253469,12.701299 1.178321,5.77984 1.616083,8.05869 3.976237,17.24364 2.360156,9.18495 -0.571294,-1.46393 2.089325,7.87124 2.660618,9.33516 6.581744,7.81868 10.079369,14.04192 3.497619,6.22324 5.641554,2.58404 9.71864,5.20968 4.077082,2.62566 7.871499,1.25415 10.217253,1.80358"
       sodipodi:nodetypes="caaaassssc" /><path
       style="fill:none;stroke:#000000;stroke-width:0.619279;stroke-opacity:1"
       d="m 98.783329,60.260304 c 3.879141,0.07344 7.720481,1.484593 10.724651,3.939814 3.28446,2.684298 5.51042,6.532526 6.63164,10.623495 1.25703,4.586507 1.18411,9.439774 0.64385,14.164633 -0.87889,7.686333 -2.95801,15.175544 -4.6357,22.727864 -0.93386,4.20386 -1.74681,8.44312 -3.02609,12.55505 -1.24667,4.00709 -2.93041,7.87092 -4.89103,11.5813 -2.9398,5.56344 -6.522967,10.81213 -10.884251,15.34793 -2.330904,2.42417 -4.878837,4.63959 -7.603351,6.61107"
       id="path1845-9"
       inkscape:path-effect="#path-effect1847-1"
       inkscape:original-d="m 98.783329,60.260304 c 4.806781,1.588789 5.916631,2.352265 10.724651,3.939814 4.80802,1.587525 6.09968,6.80469 6.63164,10.623495 1.03344,7.418835 0.6003,9.701234 0.64385,14.164633 0.0435,4.463406 -3.13401,14.959354 -4.6357,22.727864 -1.5017,7.76848 -2.29701,8.30625 -3.02609,12.55505 -0.72908,4.24877 -1.58656,-1.38088 -4.89103,11.5813 -3.30446,12.9622 -7.665631,7.02146 -10.884251,15.34793 -3.21862,8.32649 -3.35457,1.63259 -7.603351,6.61107"
       sodipodi:nodetypes="csssssssc" /><path
       style="fill:none;stroke:#000000;stroke-width:0.619279;stroke-opacity:1"
       d="m 98.783329,60.260304 c -0.543189,-0.933276 -1.309447,-1.73571 -2.21669,-2.321345 -1.370517,-0.884683 -3.012449,-1.255192 -4.63571,-1.416452 -1.016205,-0.100953 -2.045149,-0.125876 -3.056089,0.01858 -1.01094,0.14445 -2.006021,0.462889 -2.867312,1.011563 -1.639146,1.044196 -2.680573,2.864725 -3.09047,4.764496 -0.354354,1.642344 -0.257391,3.436332 0.57946,4.893226 0.473591,0.824486 1.167263,1.512551 1.961969,2.034573 0.794707,0.522022 1.688869,0.881996 2.609351,1.12028 2.596364,0.672117 5.454325,0.351345 7.790571,-0.965773 0.855736,-0.482443 1.6396,-1.092115 2.31784,-1.802766"
       id="path1849-2"
       inkscape:path-effect="#path-effect1851-8"
       inkscape:original-d="m 98.783329,60.260304 c -11.207401,1.363626 0.0998,-4.167575 -2.21669,-2.321345 -1.69856,1.353724 22.300991,-11.271216 -4.63571,-1.416452 -33.526255,12.265533 -32.123221,26.961505 -5.923401,1.030138 1.42389,-1.40929 -2.06093,3.176946 -3.09047,4.764496 -1.02954,1.587525 1.16465,3.359113 0.57946,4.893226 -0.90909,2.383208 -15.02954,14.441764 4.57132,3.154853 1.60457,-0.92397 5.193091,-0.643217 7.790571,-0.965773 2.59746,-0.322532 1.54461,-1.201211 2.31784,-1.802766"
       sodipodi:nodetypes="csssssssc" /><path
       style="fill:none;stroke:#000000;stroke-width:0.619279;stroke-opacity:1"
       d="m 98.176249,67.596681 c 2.356951,0.146033 4.657421,1.089253 6.438491,2.639853 1.28103,1.115271 2.28822,2.526384 3.02608,4.056233 1.97595,4.096864 1.99251,8.858233 1.50942,13.380987 -0.45693,4.277863 -1.32256,8.501021 -2.25347,12.701296 -1.27637,5.759 -2.67772,11.4896 -3.97624,17.24365 -0.59797,2.64976 -1.1765,5.31281 -2.08932,7.87124 -1.961899,5.49877 -5.48767,10.43612 -10.079371,14.04192 -2.904836,2.28113 -6.21878,4.0296 -9.718641,5.20968 -3.289531,1.10916 -6.746777,1.71945 -10.21725,1.80358"
       id="path1853-0"
       inkscape:path-effect="#path-effect1855-7"
       inkscape:original-d="m 98.176249,67.596681 c 3.476171,0.665967 4.605311,1.21865 6.438491,2.639853 1.33317,1.033554 2.40564,2.487597 3.02608,4.056233 1.65092,4.17399 1.65138,8.894624 1.50942,13.380987 -0.13599,4.29774 -1.39453,8.488087 -2.25347,12.701296 -1.17832,5.77984 -1.61608,8.0587 -3.97624,17.24365 -2.36015,9.18495 0.5713,-1.46393 -2.08932,7.87124 -2.660621,9.33516 -6.581751,7.81868 -10.079371,14.04192 -3.497621,6.22324 -5.641551,2.58404 -9.718641,5.20968 -4.07708,2.62566 -7.8715,1.25415 -10.21725,1.80358"
       sodipodi:nodetypes="caaaassssc" /><path
       id="rect2075"
       style="opacity:1;fill:none;stroke:#000000;stroke-width:0.619;stroke-dasharray:none"
       d="m 85.743053,157.81146 0,45.58706 c 0,3.05982 -1.847095,6.36353 -5.968264,6.36353 h -20.82173 c -4.564552,0 -5.968206,-3.80864 -5.968206,-6.36353 l 0,-45.58706"
       sodipodi:nodetypes="ccccsc" /><path
       style="opacity:1;fill:none;stroke:#000000;stroke-width:0.619;stroke-dasharray:none;stroke-opacity:1"
       d="m 67.911955,146.54512 h 2.903993"
       id="path7429"
       inkscape:path-effect="#path-effect7431"
       inkscape:original-d="m 67.911955,146.54512 c 0.968262,2.6e-4 1.936261,2.6e-4 2.903993,0" /></g></svg>
